<svg id="Layer_3" enable-background="new 0 0 64 64" height="512" viewBox="0 0 64 64" width="512" xmlns="http://www.w3.org/2000/svg"><g><path d="m2 25v33c0 2.209 1.791 4 4 4h52c2.209 0 4-1.791 4-4v-36c0-1.105-.895-2-2-2h-13" fill="#4c506e"/><path d="m62 32c0-1.105-.895-2-2-2h-53c-2.761 0-5-2.239-5-5 0-2.761 2.239-5 5-5h53c1.105 0 2 .895 2 2z" fill="#363a4f"/><path d="m7 23c-1.105 0-2 .895-2 2v4.578c.613.268 1.288.422 2 .422h53v-7z" fill="#2c2f41"/><path d="m51.5 25h-41c-.828 0-1.5-.672-1.5-1.5 0-.828.672-1.5 1.5-1.5h41c.828 0 1.5.672 1.5 1.5 0 .828-.672 1.5-1.5 1.5z" fill="#4c506e"/><circle cx="32" cy="17" fill="#f6b940" r="15"/><path d="m32 2c-8.284 0-15 6.716-15 15 0 3.382 1.133 6.491 3.02 9h14.98c2.209 0 4-1.791 4-4v-18.262c-2.091-1.106-4.47-1.738-7-1.738z" fill="#fad85d"/><path d="m22 17h-2c0 6.617 5.383 12 12 12v-2c-5.514 0-10-4.486-10-10z" fill="#fce797"/><path d="m32 5v2c5.514 0 10 4.486 10 10h2c0-6.617-5.383-12-12-12z" fill="#fce797"/><path d="m39 14c0-2.206-1.794-4-4-4v-2h-2v2h-1v-2h-2v2h-4v2h2v10h-2v2h4v2h2v-2h1v2h2v-2c2.206 0 4-1.794 4-4 0-1.2-.542-2.266-1.382-3 .84-.734 1.382-1.8 1.382-3zm-2 6c0 1.103-.897 2-2 2h-5v-4h5c1.103 0 2 .897 2 2zm-7-4v-4h5c1.103 0 2 .897 2 2s-.897 2-2 2z" fill="#fff"/><path d="m9 30v22c0 2.209 1.791 4 4 4h49v-24c0-1.105-.895-2-2-2h-13" fill="#787faa"/><path d="m62 40h-9c-2.761 0-5 2.239-5 5 0 2.761 2.239 5 5 5h9" fill="#4c506e"/><circle cx="53" cy="45" fill="#363a4f" r="2"/><g fill="#9da1bf"><path d="m42.5 35h-28c-.828 0-1.5-.672-1.5-1.5 0-.828.672-1.5 1.5-1.5h28c.828 0 1.5.672 1.5 1.5 0 .828-.672 1.5-1.5 1.5z"/><path d="m56.5 54h-28c-.828 0-1.5-.672-1.5-1.5 0-.828.672-1.5 1.5-1.5h28c.828 0 1.5.672 1.5 1.5 0 .828-.672 1.5-1.5 1.5z"/></g></g></svg>